<svg width="25" height="24" viewBox="0 0 25 24" fill="none" xmlns="http://www.w3.org/2000/svg">
<path d="M21.5378 2H4.39944C3.61413 2 2.97607 2.64732 2.97607 3.44196V20.558C2.97607 21.3527 3.61413 22 4.39944 22H21.5378C22.3231 22 22.9657 21.3527 22.9657 20.558V3.44196C22.9657 2.64732 22.3231 2 21.5378 2ZM9.01757 19.1429H6.05483V9.59821H9.02203V19.1429H9.01757ZM7.5362 8.29464C6.5858 8.29464 5.81834 7.52232 5.81834 6.57589C5.81834 5.62946 6.5858 4.85714 7.5362 4.85714C8.48213 4.85714 9.25405 5.62946 9.25405 6.57589C9.25405 7.52679 8.48659 8.29464 7.5362 8.29464ZM20.1234 19.1429H17.1606V14.5C17.1606 13.3929 17.1383 11.9688 15.6213 11.9688C14.0774 11.9688 13.8409 13.1741 13.8409 14.4196V19.1429H10.8782V9.59821H13.7205V10.9018H13.7606C14.1577 10.1518 15.126 9.36161 16.5672 9.36161C19.5656 9.36161 20.1234 11.3393 20.1234 13.9107V19.1429Z" fill="#fff"/>
</svg>
